<?xml version="1.0" encoding="UTF-8" standalone="yes"?>
<svg viewBox="-11 -3 64 64" xmlns="http://www.w3.org/2000/svg" fill="currentColor">
  <path d="M18.2134 33.6167H21.0002H23.7869H28.6637C28.6637 33.6167 24.9812 26.0866 26.2751 12.9088C25.0807 9.0541 23.3888 4.75116 21.0002 0C18.6116 4.75116 16.9196 9.0541 15.7253 12.9088C17.0191 26.0866 13.3367 33.6167 13.3367 33.6167H18.2134Z"/>
  <path d="M12.0427 36.6646C12.0427 36.6646 2.48822 33.7064 8.55931 25.8176C7.56405 23.3076 6.56879 20.9768 6.56879 20.9768C6.56879 20.9768 -9.15633 33.8856 7.96215 43.9258C13.038 43.9258 13.4361 43.9258 13.4361 43.9258L17.5167 36.6646H12.0427Z"/>
  <path d="M15.3271 46.7944L16.7205 54.7728L17.9148 57.2828C17.9148 57.2828 19.0096 58.0896 21.0001 58.0896C22.9907 58.0896 24.0854 57.2828 24.0854 57.2828L25.2798 54.7728L26.6731 46.7944L21.0001 37.7403L15.3271 46.7944Z"/>
  <path d="M35.4313 20.9768C35.4313 20.9768 34.436 23.3076 33.4407 25.8176C39.5118 33.7064 29.9573 36.6646 29.9573 36.6646H24.4834L28.564 43.9258C28.564 43.9258 28.9621 43.9258 34.0379 43.9258C51.1564 33.8856 35.4313 20.9768 35.4313 20.9768Z"/>
</svg>