<?xml version="1.0" encoding="UTF-8" standalone="yes"?>
<svg xmlns="http://www.w3.org/2000/svg" viewBox="10 6 124 124" fill="currentColor">
  <path d="m110.23,19.61c-.55-.07-1.1-.11-1.63-.11-6.07,0-11.35,4.49-12.17,10.67-.16,1.17-.13,2.32.04,3.44l-4.4,1.85c-5.4-9.27-15.45-15.5-26.95-15.5-17.22,0-31.18,13.96-31.18,31.18,0,2.88.4,5.66,1.13,8.3l-11.95,5.03,3.11,7.38,11.95-5.03,7.37-3.1c-1.44-2.23-2.5-4.72-3.11-7.38-.38-1.67-.59-3.41-.59-5.2,0-12.84,10.45-23.29,23.29-23.29,8.21,0,15.43,4.27,19.58,10.71,1.44,2.23,2.5,4.72,3.11,7.38.38,1.67.59,3.41.59,5.2,0,4.42-1.25,8.56-3.4,12.08-1.19,1.94-2.64,3.71-4.33,5.22-.14.12-.28.25-.42.37-.14.1-.27.17-.41.25v31.37l13.39-11.59-5.3-16.48c5.18-5.57,8.36-13.02,8.36-21.22,0-2.88-.4-5.66-1.13-8.3,0,0,5.02-2.11,5.02-2.11,1.81,1.71,4.15,2.9,6.8,3.25.55.07,1.1.11,1.63.11,6.07,0,11.35-4.49,12.17-10.67.89-6.73-3.84-12.91-10.57-13.8Zm4.03,12.94c-.38,2.82-2.8,4.95-5.64,4.95-.25,0-.51-.02-.77-.05-1.51-.2-2.85-.98-3.78-2.19-.93-1.21-1.33-2.71-1.12-4.22.38-2.82,2.8-4.95,5.64-4.95.25,0,.51.02.77.05,1.51.2,2.85.98,3.78,2.19.93,1.21,1.33,2.71,1.12,4.22Z"/>
  <polygon points="41.27 88.85 54.66 100.44 54.66 124.5 73.51 113.39 73.51 38.68 54.66 47.18 41.27 88.85"/>
</svg>