<?xml version="1.0" encoding="UTF-8" standalone="yes"?>
<svg xmlns="http://www.w3.org/2000/svg" viewBox="10 10 124 124" fill="currentColor">
  <path d="m79.01,54.66c0-.41.03-.8.08-1.2.05-.38.14-.76.24-1.13,1.55-5.52,8.69-9.57,20.07-10.66-2.69-12.67-13.94-22.18-27.41-22.18s-24.72,9.51-27.41,22.18c11.64,1.11,18.83,5.32,20.16,11.04.07.31.13.61.17.93.04.34.07.67.07,1.02,0,3.76-3.2,9.87-10.72,14.51,0,0,0,0,0,0,0,0,0,0,0,0-5.89,3.64-14.42,6.37-26.14,6.37,4.65,10.97,13.29,19.83,24.11,24.78l.18.21,19.59,23.96,19.59-23.96.18-.21c10.81-4.94,19.46-13.8,24.1-24.78-26.69,0-36.86-14.19-36.86-20.89Zm-14.58-15.95c-2.1-1.36-4.51-2.5-7.2-3.42,3.56-4.28,8.93-6.96,14.77-6.96s11.2,2.68,14.77,6.96c-2.69.92-5.1,2.06-7.2,3.42-3.44,2.22-5.99,5.01-7.57,8.17-1.57-3.16-4.13-5.95-7.57-8.17Zm15.5,63.48h0c-4.1-5.02-11.77-5.02-15.87,0l-16.81-20.56,6.46-5.39,12.08,11.87,6.2-7.78,6.2,7.78,12.08-11.87,6.46,5.39-16.81,20.56Z"/>
</svg>