<?xml version="1.0" encoding="UTF-8" standalone="yes"?>
<svg xmlns="http://www.w3.org/2000/svg" viewBox="-21.75 -12.89 128 128" fill="currentColor">
  <path d="m74.51,17.37v44.06c0,3.95-.99,7.67-2.94,11.03-1.91,3.3-4.79,6.48-8.81,9.73-2.4,1.94-12.2,7.77-20.5,12.53-8.3-4.76-18.11-10.59-20.5-12.53-4.02-3.24-6.9-6.43-8.81-9.73-1.95-3.37-2.94-7.08-2.94-11.03V17.37L0,7.36v54.07c0,5.73,1.44,11.13,4.28,16.04,2.54,4.38,6.19,8.47,11.18,12.5,4.85,3.92,26.79,16.25,26.79,16.25,0,0,21.93-12.34,26.79-16.25,4.99-4.03,8.65-8.12,11.18-12.5,2.84-4.91,4.28-10.31,4.28-16.04V7.36l-10,10.01Z"/>
  <path d="m54.86,37.04l-.09-.18-6.62-19.49L42.25,0l-5.9,17.37-6.62,19.49-.09.18-9.65-9.66h0v34.05c0,2.2.52,4.17,1.59,6.03,1.29,2.22,3.39,4.5,6.44,6.96,1.15.91,6.35,4.16,14.22,8.76,7.87-4.6,13.08-7.85,14.23-8.76,3.04-2.46,5.15-4.73,6.43-6.95,1.07-1.85,1.59-3.82,1.59-6.03V27.38l-9.65,9.66Z"/>
</svg>