<?xml version="1.0" encoding="UTF-8" standalone="yes"?>
<svg xmlns="http://www.w3.org/2000/svg" viewBox="6 8 130 130" fill="currentColor">
  <path d="m118.56,90.71c-6.01-6.33-3.53-19.64-3.53-19.64l-16.46,16.28s20.43,16.22,3.92,19.56c-29.77.55-56.87-21.42-65.21-42.35-.85-2.13.03-3.82,1.32-5.06,1.37-1.31.95-3.6-.86-4.17-3.68-1.16-7.3-3.33-6.03-7.3,2.2-6.86,22.39-2.09,21.51-6.59-.44-2.22-1.81-5.16,5.52-3.92,7.33,1.24,15,1.33,7.99-3.82-6.34-4.67-18.44-7.92-26.36-6.73,7.14,7.97-5.77,13.19-14.85,6.55,0,0-5.59,7.78-5.95,14.01s3.86,6.82,4.72,14.4c.72,6.29-1.21,14.52,8.67,17.79,3.71,1.23,8.94,3.35,9.75,9.57.91,6.9,3.03,22.09,17.58,19.96,4.8-.7,11.85-6.01,25.77,3.15-4.95,2.56-10.8,4.22-22.46,1.34-.64-.16-1.21.32-.76.79,8.81,9.24,26.16,12.31,32.83,4.63,3.87,1.92,7.44,3.11,11.19,3.01,10.03-.27,4.89-11.07,11.21-14.38,9.26-4.84,5.5-11.81.5-17.08Z"/>
  <path d="m124.54,54.51h-20.39l-36.54,36.54c4.25,2.7,8.83,5,13.65,6.75l43.29-43.29Z"/>
  <path d="m44.17,66.53c3.67,7.04,9.59,14.07,17,19.96l37.4-37.41-8.05-28.9-46.35,46.35Z"/>
  <path d="m37.48,93.61l-3.74,3.75c-3.48,3.48-9.15,3.48-12.63,0v11.32l15.09,15.1h11.33c-1.75-1.75-2.62-4.03-2.62-6.32,0-2.11.76-4.24,2.27-5.93-.85-.61-1.66-1.29-2.42-2.06-4.21-4.27-6.41-10.39-7.28-15.85Z"/>
</svg>