<?xml version="1.0" encoding="UTF-8" standalone="yes"?>
<svg xmlns="http://www.w3.org/2000/svg" viewBox="-21.15 -7.78 120 120" fill="currentColor">
  <path d="M80.36,54.07c.36-.21,.71-.43,1.06-.65,.3-3.75-.04-7.77-1.08-11.97-1.66,2.38-3.61,4.18-5.27,5.22-1.99,1.29-3.55,1.56-3.82,1.06-.56-.97,3.41-4.41,6.5-9.87,.34-.58,.64-1.18,.93-1.79-1.95-5.19-4.92-10.59-9.01-16.04l-14.72,34.38c4.56,1.24,8.69,4.33,7.02,8.83-1.91,5.15-16.67,17.05-21.2,20.62-4.53-3.57-19.3-15.47-21.2-20.62-1.66-4.49,2.46-7.59,7.02-8.83L11.87,20.02c-4.09,5.45-7.06,10.85-9.01,16.04,.29,.61,.59,1.2,.93,1.79,3.09,5.46,7.06,8.91,6.5,9.87-.27,.5-1.83,.22-3.82-1.06-1.67-1.04-3.61-2.84-5.27-5.22C.15,45.65-.2,49.67,.1,53.42c.35,.22,.7,.45,1.06,.65,4.69,2.74,8.76,4.54,8.56,5.49-.1,.49-1.38,.68-3.31,.33-1.57-.27-3.55-.91-5.62-1.93,1.96,8.28,7.38,14.82,15.58,18.41,8.38,3.66,15.17,10.44,18.19,13.79h-.05l-6.24,6.24,12.48,12.48,12.48-12.48-6.24-6.24h-.05c3.02-3.35,9.82-10.13,18.19-13.79,8.2-3.59,13.63-10.12,15.58-18.41-2.07,1.02-4.06,1.66-5.62,1.93-1.92,.34-3.21,.16-3.31-.33-.2-.96,3.87-2.76,8.56-5.49Z"/>
  <path d="M54.37,73.55c-5.3-5.3-7.66-12.87-6.31-20.25l7.11-38.82L40.76,0l-14.4,14.48,7.11,38.82c1.35,7.38-1.01,14.94-6.31,20.25l-14.34,14.34h0l6.24,6.24,21.7-21.7,21.7,21.7,6.24-6.24h0l-14.34-14.34Z"/>
  <polygon points="55.16 14.48 55.16 14.48 55.16 14.48 55.16 14.48"/>
  <polygon points="26.36 14.48 26.36 14.48 26.36 14.48 26.36 14.48"/>
</svg>