<?xml version="1.0" encoding="UTF-8" standalone="yes"?>
<svg xmlns="http://www.w3.org/2000/svg" viewBox="-6.57 -12 120 120" fill="currentColor">
  <path d="M56.74,49.34c-1.09,.13-2.19,.2-3.31,.2s-2.23-.07-3.31-.2l-9.24,11.74,12.55,44.11,12.55-44.11-9.24-11.74Z"/>
  <path d="M33.14,41.7H16.57c4.32,7.69,10.97,13.9,18.99,17.66l5.63-12.06c-3-1.41-5.72-3.31-8.05-5.61Z"/>
  <path d="M73.72,41.7h16.57c-4.32,7.69-10.97,13.9-18.99,17.66l-5.63-12.06c3-1.41,5.72-3.31,8.05-5.61Z"/>
  <path d="M82.3,20.81c.23,4.43-.92,8.42-2.14,11.36l12.16,5.42,14.54-14.87v-1.91h-24.56Z"/>
  <path d="M24.56,20.81c-.23,4.43,.92,8.42,2.14,11.36l-12.16,5.42L0,22.72v-1.91H24.56Z"/>
  <path d="M53.43,10.62c5.77,0,10.47,4.7,10.47,10.47s-4.7,10.47-10.47,10.47-10.47-4.7-10.47-10.47,4.7-10.47,10.47-10.47m0-10.62c-11.63,0-21.09,9.46-21.09,21.09s9.46,21.09,21.09,21.09,21.09-9.46,21.09-21.09S65.06,0,53.43,0h0Z"/>
</svg>