<?xml version="1.0" encoding="UTF-8" standalone="yes"?>
<svg xmlns="http://www.w3.org/2000/svg" viewBox="8 8 128 128" fill="currentColor">
  <circle cx="72.03" cy="37.55" r="7.59"/>
  <path d="m124.48,71.17c-4.11-.58-7.75-3.43-9.12-7.65-1.6-4.93.39-10.15,4.52-12.86-1.69-3.72-3.8-7.21-6.28-10.4l-13.35,13.36c3.53,5.27,5.58,11.61,5.58,18.43,0,8.89-3.5,16.95-9.19,22.91v-20.87l-9.87-9.87v-7.22c.88-.67,1.72-1.4,2.52-2.19,9.52-9.52,9.52-25.02,0-34.54l-6.98,6.98c5.68,5.68,5.68,14.9,0,20.58-1.58,1.58-3.44,2.7-5.41,3.4v72.48c4.12-.34,8.11-1.15,11.9-2.4-1.19-4.37.34-9.22,4.23-12.04,4.52-3.29,10.66-2.7,14.51,1.12,2.76-2.52,5.25-5.34,7.41-8.4-3.31-2.87-4.77-7.54-3.33-11.97,1.67-5.13,6.68-8.24,11.84-7.7.67-3.32,1.02-6.75,1.02-10.27,0-.3-.02-.59-.02-.88Z"/>
  <path d="m67.09,51.23c-1.95-.7-3.79-1.82-5.35-3.39-5.68-5.68-5.68-14.9,0-20.58l-6.98-6.98c-4.61,4.61-7.15,10.75-7.15,17.27s2.54,12.66,7.15,17.27c.78.78,1.6,1.49,2.46,2.14v7.26l-9.87,9.87v20.87c-5.69-5.95-9.19-14.02-9.19-22.91,0-6.82,2.06-13.15,5.58-18.43l-13.35-13.36c-2.48,3.19-4.59,6.67-6.28,10.4,4.13,2.71,6.12,7.93,4.52,12.86-1.37,4.22-5,7.06-9.12,7.65,0,.29-.02.59-.02.88,0,3.52.35,6.95,1.02,10.27,5.16-.54,10.18,2.57,11.84,7.7,1.44,4.43-.02,9.1-3.33,11.97,2.17,3.06,4.65,5.88,7.41,8.4,3.84-3.81,9.99-4.4,14.51-1.12,3.89,2.82,5.42,7.67,4.23,12.04,3.79,1.24,7.78,2.06,11.9,2.4V51.23Z"/>
</svg>