<?xml version="1.0" encoding="UTF-8" standalone="yes"?>
<svg xmlns="http://www.w3.org/2000/svg" viewBox="8 8 128 128" fill="currentColor">
  <path d="m90.19,87.35c6.42,2.55,5.97,12.1-3.67,12.56-.35,3.98-1.08,8.02-2.48,11.8,11.99-2.5,23.33-8.71,22.38-17.12-.96-8.48-9.95-9.72-16.23-7.25Z"/>
  <path d="m64.97,95.91l-.58,6.5c-.35,3.95-1.26,7.72-2.69,11.22l-1.27,3.09h-.25c-.12.23-.24.47-.36.69-2.6,4.7-5.31,7.09-5.31,7.09,20.71,0,27.38-11.12,27.38-31.84v-2.59c-1.21.4-2.42.8-3.62,1.19-3.83,1.25-9.08,2.97-13.3,4.65Z"/>
  <path d="m71.56,65.61l-7.05-3.84v13.62c7.36-2.72,13.19-5.39,17.34-7.94.01,0,.02-.02.04-.02,0-1.86,0-3.53,0-4.85l-5.56,3.03-2.39,1.3-2.39-1.3Z"/>
  <path d="m44.72,63.67c-1.01-5.05,1.42-7.97,1.42-7.97l5.53,9.28c-.23.1-6.47,3.23-8.85,9.53l3.61,2.38c3.98-3.71,8.67-6.71,13.16-8.86v-8.94c-5.57-3.16-9.29-8.82-9.95-15.2-.27-2.62.7-5.08,2.43-6.81-8.77,2.36-13.2,7.61-15.3,13.26l-3.63-4.72c-5.63,14.3-.13,22.42-.13,22.42l3.2,2.11,2.41,1.59c1.66-3.81,4.08-6.41,6.1-8.06Z"/>
  <path d="m113.18,55.72c-1.22-8.43-7.87-13.11-14.84-13.49-.01.55-.04,1.09-.1,1.64-.5,4.79-2.71,9.17-6.14,12.39,4.04,5.65.06,11.3-10.22,16.92-4.59,2.51-10.43,5.01-17.38,7.51-.54.19-1.08.39-1.63.58-15.15,5.31-27.7,6.81-26.33,18.2.89,7.41,6.48,12.24,20.54,12.24,1.26-3.05,2.03-6.32,2.34-9.76-.5.25-1.1.37-1.72.37-1.94,0-4.13-1.16-4.43-3.15-.47-3.12,4.33-5.82,11.23-8.47,5.07-1.95,11.28-3.86,17.38-5.9,1.62-.54,3.24-1.09,4.82-1.66,19.49-6.92,28.16-15.79,26.47-27.43Z"/>
  <path d="m62.28,54.87l10.6,5.77,1.06.58,1.6-.87,8.94-4.86,1.13-.62c1.3-.71,2.44-1.61,3.45-2.63,2.34-2.37,3.87-5.48,4.22-8.88.11-1.09.1-2.17-.02-3.23-.09-.83-.28-1.65-.51-2.44-.69-2.37-1.95-4.57-3.75-6.37l-1.9-1.9-7.63-7.63c-1.53-1.53-3.54-2.29-5.54-2.29s-4.02.76-5.55,2.29l-2.08,2.08c-3.06,3.06-3.06,8.03,0,11.09l2.08,2.08c.64.64,1.37,1.14,2.15,1.51v13.08l-5.02-2.73c-2.33-1.27-3.89-3.61-4.17-6.25-.18-1.75-1.65-3.05-3.38-3.05-.11,0-.23,0-.35.02-1.87.19-3.22,1.86-3.03,3.73.51,4.87,3.38,9.18,7.68,11.52Zm15.06-16.31c.78-.37,1.5-.87,2.15-1.51l2.82-2.82,1.9,1.9c1.73,1.73,2.57,4.11,2.32,6.54-.27,2.64-1.83,4.98-4.16,6.25l-5.02,2.73v-13.08Z"/>
</svg>