<?xml version="1.0" encoding="UTF-8" standalone="yes"?>
<svg xmlns="http://www.w3.org/2000/svg" viewBox="-14 -14 132 132" fill="currentColor">
  <path d="m68.84,26.93c-4.56-2.7-9.87-4.26-15.55-4.26l7.4,12.82,11.71,20.28,7.4,12.82c2.61-4.5,4.11-9.73,4.11-15.3,0-.09,0-.18,0-.27-.1-11.1-6.13-20.81-15.07-26.1Z"/>
  <path d="m22.68,53.03c0,.09,0,.18,0,.27,0,5.57,1.5,10.79,4.11,15.3l7.4-12.82,11.71-20.28,7.4-12.82c-5.67,0-10.99,1.56-15.55,4.26-8.94,5.29-14.97,15-15.07,26.1Z"/>
  <path d="m53.29,0C23.91,0,0,23.91,0,53.29c0,9.69,2.61,18.78,7.15,26.62,2.08,3.58,4.55,6.9,7.38,9.9l5.99-10.37c-2.73-3.41-4.94-7.25-6.5-11.41-1.73-4.59-2.68-9.55-2.68-14.74,0-20.79,15.21-38.09,35.08-41.39,2.24-.37,4.53-.57,6.88-.57s4.64.2,6.88.57c19.88,3.29,35.08,20.59,35.08,41.39,0,5.19-.95,10.15-2.68,14.74-1.57,4.16-3.77,8-6.5,11.41l5.99,10.37c2.82-2.99,5.3-6.31,7.38-9.9,4.54-7.84,7.15-16.93,7.15-26.62C106.59,23.91,82.68,0,53.29,0Z"/>
  <path d="m53.29,45.34l-17.67,30.61c-7.78,13.48,1.77,30.54,17.34,30.64.11,0,.22,0,.33,0s.22,0,.33,0c15.57-.1,25.12-17.16,17.34-30.64l-17.67-30.61Z"/>
</svg>