<?xml version="1.0" encoding="UTF-8" standalone="yes"?>
<svg xmlns="http://www.w3.org/2000/svg" viewBox="-13 -19 132 132" fill="currentColor">
  <path d="m106.28,12.53L65.22,0l-12.08,16.66L41.05,0,0,12.53l9.68,41.82,20.47,2.13-8.39,18.79,3.38,3.16,27.99,26.14,31.37-29.29-8.39-18.79,20.47-2.13,9.68-41.82Zm-22.76,26.58l-15.81,1.19,3.49,6.03-6.33,10.97h-6.96s6.88,14.28,6.88,14.28l-11.64,10.87-11.64-10.87,6.88-14.29h-6.96s-6.33-10.96-6.33-10.96l3.49-6.03-15.81-1.19-3.59-15.51,15.23-4.65,8.93,13.1,3.48-6.03h12.66l3.48,6.03,8.93-13.1,15.23,4.65-3.59,15.51Z"/>
</svg>