<?xml version="1.0" encoding="UTF-8" standalone="yes"?>
<svg xmlns="http://www.w3.org/2000/svg" viewBox="6 2 132 132" fill="currentColor">
  <polygon points="62.2 100.56 72 124.29 72 124.29 81.8 100.56 72 90.76 62.2 100.56"/>
  <polygon points="82.12 45.82 93.61 57.31 101.55 48.85 116.66 55.31 124.5 40.86 112.1 19.71 86.05 26.92 86.05 35.57 94.22 35.57 94.22 32.11 101.81 30.28 107.2 40.38 87.56 40.38 82.12 45.82"/>
  <polygon points="42.45 48.85 50.39 57.31 61.88 45.82 56.44 40.38 36.8 40.38 42.19 30.28 49.78 32.11 49.78 35.57 57.95 35.57 57.95 26.92 31.9 19.71 19.5 40.86 27.34 55.31 42.45 48.85"/>
  <polygon points="88.71 62.52 72 45.81 55.29 62.52 65.48 73.37 57.98 80.51 57.98 95.25 72 80.32 86.02 95.25 86.02 80.51 78.52 73.37 88.71 62.52"/>
  <path d="m103.36,57.37l-10.17,10.84v48.09l3.55-3.07,8.55-40.35h2.29v20.31l3.48-3.07,11.36-23.8h0s.32-.67.32-.67l-19.39-8.28Zm4.23,4.7h0,0s0,0,0,0Z"/>
  <path d="m21.25,65.65l.32.67h0s11.36,23.8,11.36,23.8l3.48,3.07v-20.31h2.29l8.55,40.35,3.55,3.07v-48.09l-10.17-10.84-19.39,8.28Zm15.16-3.58h0s0,0,0,0h0Z"/>
</svg>