<?xml version="1.0" encoding="UTF-8" standalone="yes"?>
<svg xmlns="http://www.w3.org/2000/svg" viewBox="8 6 128 128" fill="currentColor">
  <path d="m72,52.26l9.99-10.81c-3.14-5.98-9.99-5.46-9.99-5.46,0,0-6.85-.52-9.99,5.46l9.99,10.81Z"/>
  <path d="m79.97,109.34s0,0,0,0h-15.94c-.8,1.52-.96,1.83-1.77,3.35l7.14,10.44c.63.92,1.63,1.38,2.63,1.37,1,.01,2-.44,2.63-1.37l7.14-10.44c-.8-1.52-.96-1.83-1.77-3.35h-.07Z"/>
  <path d="m62.04,52.25c0-5.43-3.93-9.95-9.09-10.9.49-8.85,7-14.52,10.73-15.63h0s-3.21-6.23-3.21-6.23c-2.82.95-10.55,4.6-15.09,15.09-15.83.07-22.97,10.87-25.32,15.23,4.3,1.39,4.39,4.23,3.27,6.43-13.47,26.38,15.2,40.2,16.17,38.05.97-2.15-16.38-15.18-9.55-30.27,2.87-6.35,6.18-9.57,9.95-11.05.37,5.78,5.18,10.37,11.05,10.37s11.09-4.97,11.09-11.09Zm-11.09,5.18c-2.86,0-5.19-2.33-5.19-5.18s2.33-5.19,5.19-5.19,5.19,2.33,5.19,5.19-2.33,5.18-5.19,5.18Z"/>
  <path d="m120.67,56.25c-1.13-2.21-1.04-5.05,3.27-6.43-2.35-4.36-9.49-15.16-25.32-15.23-4.54-10.48-12.27-14.14-15.09-15.09l-3.21,6.23h0c3.74,1.11,10.25,6.78,10.73,15.63-5.16.94-9.09,5.47-9.09,10.9,0,6.11,4.97,11.09,11.09,11.09s10.68-4.59,11.05-10.37c3.77,1.48,7.08,4.71,9.95,11.05,6.82,15.09-10.53,28.12-9.55,30.27.97,2.15,29.65-11.66,16.17-38.05Zm-27.62,1.19c-2.86,0-5.19-2.33-5.19-5.18s2.33-5.19,5.19-5.19,5.19,2.33,5.19,5.19-2.33,5.18-5.19,5.18Z"/>
  <path d="m86.15,87.67l-22.95-12.06c-1.4-.74-1.31-2.78.15-3.39l1.15-.48c2.71-1.13,1.9-5.17-1.03-5.17h-5.37c-7.25,0-9.89,9.56-3.65,13.27,9.39,5.59,18.8,11.18,21.65,12.82,1.07.61,1.4,2,.73,3.03-1.53,2.35,1.09,5.2,3.56,3.86,1.93-1.04,3.94-2.13,5.82-3.15,3.48-1.89,3.45-6.89-.06-8.73Z"/>
  <path d="m93.28,72.6s-3.43-1.79-10.35-5.42c-5.15-2.7-5.89-7.21-5.93-9.35h-10.44v5.14c0,2.32,1.25,4.46,3.28,5.59,4.28,2.38,11.31,6.3,12.07,6.74,1.1.63,1.62,2.19.92,3.37-2.12,3.57,2.05,7.54,5.52,5.26l5.15-3.4c2.89-1.91,2.77-6.18-.21-7.93Z"/>
  <path d="m68.7,103.67c.77,1.24,2.21,1.92,3.67,1.92h2.68c.99,0,1.79-.8,1.79-1.79,0-1.69-.91-3.25-2.39-4.08-3.13-1.74-8.27-4.61-8.83-4.93-.81-.46-1.19-1.6-.67-2.46,1.55-2.61-1.5-5.51-4.03-3.84l-3.76,2.48c-2.11,1.39-2.03,4.52.16,5.79,0,0,2.5,1.31,7.56,3.96,2.18,1.14,3.28,2.07,3.82,2.95Z"/>
</svg>