<?xml version="1.0" encoding="UTF-8" standalone="yes"?>
<svg xmlns="http://www.w3.org/2000/svg" viewBox="-8.72 -14 124 124" fill="currentColor">
  <path d="M96.22,29.51c0-3.65,3.24-6.61,7.25-6.61h.05C98.05,9.97,85.57,0,68.96,0l-1.17,.02,16.93,16.93v8.48l-11.63,11.63-7.16-3.86v-11.94l-8.72-8.26V51l20.33-7.46-9.74,13.91-10.59-2.65v51.83l8.72-9.72v-26.94l18.79-18.79v12.73l-11.06,11.06v10.89l21.84-21.84c8.11-8.11,11.46-18.19,11.03-27.94h-3.06c-4,0-7.25-2.96-7.25-6.61Z"/>
  <path d="M40.63,33.21l-7.16,3.86-11.63-11.63v-8.48L38.77,.02l-1.17-.02C20.99,0,8.51,9.97,3.04,22.9h.05c4,0,7.25,2.96,7.25,6.61s-3.24,6.61-7.25,6.61H.04c-.44,9.75,2.92,19.83,11.03,27.94l21.84,21.84v-10.89l-11.06-11.06v-12.73l18.79,18.79v26.94l8.72,9.72V54.81l-10.59,2.65-9.74-13.91,20.33,7.46V13.01l-8.72,8.26v11.94Z"/>
</svg>