<?xml version="1.0" encoding="UTF-8" standalone="yes"?>
<svg xmlns="http://www.w3.org/2000/svg" viewBox="-18.65 -18.65 144 144" fill="currentColor">
  <path d="m44.97,61.73c7.41,7.41,19.43,7.41,26.84,0,.19-.19.35-.39.53-.59-2.96-5.53-6.75-10.72-11.41-15.38-4.66-4.66-9.85-8.45-15.38-11.41-.2.18-.4.34-.59.53-7.41,7.41-7.41,19.43,0,26.84Z"/>
  <path d="m32.57,74.13c-12.52-12.52-14.03-31.94-4.53-46.12-7.98-1.66-16.21-1.81-24.24-.48-7.9,20.85-3.48,45.34,13.28,62.1,16.76,16.76,41.25,21.18,62.1,13.28,1.34-8.03,1.18-16.26-.48-24.24-14.19,9.49-33.6,7.99-46.12-4.53Z"/>
  <path d="m9.82,15.83c9.05-.57,18.17.45,26.92,3.08,7.57,2.27,14.85,5.76,21.55,10.42,3.66,2.55,7.15,5.42,10.4,8.68s6.14,6.75,8.68,10.4c4.67,6.7,8.15,13.98,10.42,21.55,2.63,8.75,3.64,17.87,3.08,26.92l15.83-15.71-6.99-74.18L25.53,0l-15.71,15.83Z"/>
</svg>