<?xml version="1.0" encoding="UTF-8" standalone="yes"?>
<svg viewBox="-8 -15 62 62" xmlns="http://www.w3.org/2000/svg" fill="currentColor">
  <path d="M46 0L33.2222 2.57143C26.8333 -0.853714 19.1667 -0.853714 12.7778 2.57143L0 0L2.55556 12.8571L0 20.5714C3.06667 26.7429 11.7556 36 23 36C34.2444 36 41.9111 27.7714 46 20.5714L43.4444 12.8571L46 0ZM7.66667 18V15.4286C7.66667 15.4286 9.71111 10.2857 12.7778 10.2857C15.8444 10.2857 17.8889 15.4286 17.8889 15.4286V18C15.7729 15.1611 11.7658 14.5851 8.94444 16.7143C8.464 17.0846 8.03467 17.5166 7.66667 18ZM30.6667 23.1429C28.8982 27.4011 24.0427 29.4171 19.8004 27.648C17.7764 26.8046 16.1716 25.1794 15.3231 23.1429V20.5714C19.8618 23.9966 26.1178 23.9966 30.6564 20.5714V23.1429H30.6667ZM38.3333 18C36.5444 15.1611 32.8031 14.3177 29.9818 16.1177C29.2253 16.6011 28.5916 17.2389 28.1111 18V15.4286C28.1111 15.4286 29.6444 10.2857 33.2222 10.2857C36.8 10.2857 38.3333 15.4286 38.3333 15.4286V18Z"/>
</svg>