<?xml version="1.0" encoding="UTF-8" standalone="yes"?>
<svg xmlns="http://www.w3.org/2000/svg" viewBox="8 8 128 128" fill="currentColor">
  <path d="m121.07,71.15h-16.43s-14.6,14.87-14.6,14.87l-4.32-7.71,18.92-19.27V25.96c0-3.52-4.68-4.74-6.4-1.67l-22.75,40.62c-1.53,2.73-5.46,2.73-6.99,0l-22.74-40.62c-1.72-3.07-6.4-1.85-6.4,1.67v33.09s18.92,19.27,18.92,19.27l-4.32,7.71-14.61-14.87h-16.43c-3.45,0-4.73,4.54-1.78,6.34l26.87,16.41-7.02,23.15c-.89,2.93,2.22,5.46,4.91,4l19.3-10.67c1.47-.81,2.38-2.36,2.38-4.03v-.09c0-1.17-.44-2.3-1.24-3.15l-6.18-6.61,11.85-21.17,11.85,21.17-6.47,6.59c-.85.86-1.32,2.02-1.32,3.23h0c0,1.69.92,3.24,2.41,4.05l19.64,10.67c2.69,1.46,5.79-1.07,4.91-4l-7.02-23.15,26.87-16.41c2.95-1.8,1.67-6.34-1.78-6.34Z"/>
</svg>