<?xml version="1.0" encoding="UTF-8" standalone="yes"?>
<svg xmlns="http://www.w3.org/2000/svg" viewBox="-20 -8.6 124 124" fill="currentColor">
  <path d="M76.38,55.61c-4.36-2.52-9.93-1.02-12.44,3.33-2.52,4.36-1.02,9.93,3.33,12.45,4.36,2.52,9.93,1.02,12.45-3.33,2.52-4.36,1.02-9.93-3.33-12.44Z"/>
  <path d="M23.98,21.28c0,5.03,4.08,9.11,9.11,9.11s9.11-4.08,9.11-9.11-4.08-9.11-9.11-9.11-9.11,4.08-9.11,9.11Z"/>
  <path d="M20.45,83.82c4.36-2.52,5.85-8.09,3.33-12.44-2.52-4.36-8.09-5.85-12.45-3.33-4.36,2.52-5.85,8.09-3.33,12.45,2.52,4.36,8.09,5.85,12.45,3.33Z"/>
  <path d="M89.96,36.5c-5.29-3.97-11.61-5.12-17.42-3.94l.03-.03-35.02,6.67c-.93,.18-1.88,.29-2.83,.34h0s.02-.01,.03-.02c-.54,.05-1.09,.08-1.65,.08-10.11,0-18.33-8.22-18.33-18.33S22.98,2.95,33.09,2.95c.01,0,.03,0,.04,0C29.16,.64,24.41-.47,19.36,.19,9.62,1.45,1.82,9.32,.64,19.07c-.79,6.56,1.37,12.61,5.3,17.06h-.04s23.29,26.98,23.29,26.98c.62,.72,1.19,1.48,1.71,2.28h0s-.02,0-.03,0c.31,.45,.62,.9,.9,1.39,5.05,8.75,2.04,19.99-6.71,25.04-8.75,5.05-19.99,2.04-25.04-6.71,0-.01-.01-.02-.02-.03-.01,4.59,1.4,9.25,4.49,13.3,5.97,7.8,16.68,10.63,25.71,6.77,6.08-2.6,10.24-7.49,12.13-13.12v.04s11.75-33.67,11.75-33.67c.31-.9,.69-1.77,1.12-2.62h0s0,.02,0,.03c.23-.5,.47-.99,.75-1.47,5.05-8.75,16.29-11.76,25.04-6.71,8.75,5.05,11.76,16.29,6.71,25.04,0,.01-.01,.02-.02,.03,3.98-2.28,7.32-5.84,9.27-10.54,3.77-9.07,.87-19.76-6.99-25.65Z"/>
</svg>