<?xml version="1.0" encoding="UTF-8" standalone="yes"?>
<svg xmlns="http://www.w3.org/2000/svg" viewBox="12 12 120 120" fill="currentColor">
  <path d="m49.67,74.4c2.19-2.31,4.87-4.27,7.91-5.77-.24.98-.38,2-.38,3.06,0,7.58,6.63,13.72,14.8,13.72,6.75,0,12.43-4.19,14.21-9.92-1.53,1.44-3.66,2.33-6.02,2.33-4.67,0-8.46-3.51-8.46-7.85,0-1.73.61-3.32,1.63-4.61,9.15.36,17.18,4.35,22.1,10.32.32-.45.63-.91.91-1.38,4.17-6.99,3.48-15.4-.98-22.46-.67-1.06-1.43-2.09-2.27-3.09-1.51-1.42-2.93-2.79-4.29-4.14-10.84-10.75-16.83-19.27-16.83-25.1,0,0-9.15,8.09-13.91,19.56-1.92,4.63-3.13,9.8-2.73,15.22,0,0-5.3-7.55-8.19-12.17-10.39,13.14-4.53,27.35,2.5,32.28Z"/>
  <path d="m103.78,57.51s5.14-5.25,1.74-14c-4.18-10.77-19.62-12.81-19.62-12.81,0,0,14.63,12.28,17.88,26.81Z"/>
  <path d="m110.7,70.33c-.33-2.68-.94-5.07-1.75-7.23-3.81,17.36-18.9,30.32-36.95,30.32s-33.14-12.97-36.95-30.32c-.81,2.16-1.42,4.55-1.75,7.23-1.04,8.46,4.97,19,13.51,25.43,15.51,11.67,19.32,11.23,19.15,12.96-.11,1.13-1.71,2.8-3.76,2.58-2.55-.41-5.54-2.08-8.94-3.27l3.4,7.66c1.42,3.2,15.33,8.82,15.33,8.82,0,0,13.91-5.62,15.33-8.82l3.4-7.66c-3.39,1.19-6.38,2.86-8.94,3.27-2.05.22-3.65-1.44-3.76-2.58-.17-1.72,3.64-1.29,19.15-12.96,8.54-6.43,14.55-16.97,13.51-25.43Z"/>
</svg>