<?xml version="1.0" encoding="UTF-8" standalone="yes"?>
<svg xmlns="http://www.w3.org/2000/svg" viewBox="-16 -16 137 137" fill="currentColor">
  <path d="m95.63,9.19C79.99-6.45,49.83-1.64,28.26,19.92c-2,2-3.85,4.07-5.56,6.2,3.74-1.93,15.15-7.06,30.01-6.74l-.81,11.6,19.06-11.2-33.18,46.29c-.46.64.33,1.43.97.97l46.29-33.18-11.2,19.06,11.6-.81c.32,14.85-4.81,26.27-6.74,30.01,2.13-1.71,4.2-3.56,6.2-5.56,21.57-21.57,26.37-51.73,10.73-67.37Z"/>
  <path d="m59.27,60.75l-19.85,9.97c-.59.35-1.25.52-1.94.5-1.42-.03-2.74-.86-3.42-2.15-.63-1.19-.61-2.57.05-3.67l9.97-19.85c-11.29-4.22-25.56-.93-35.84,9.35-3.62,3.63-6.37,7.75-8.24,12.06,8.27-5.55,18.12-7.07,26.47-4.36L1.68,102.03c-.44.69.41,1.54,1.1,1.1l39.44-24.78c2.71,8.35,1.19,18.2-4.36,26.47,4.31-1.86,8.44-4.61,12.06-8.24,10.28-10.28,13.56-24.55,9.35-35.84Z"/>
</svg>