<?xml version="1.0" encoding="UTF-8" standalone="yes"?>
<svg xmlns="http://www.w3.org/2000/svg" viewBox="11 6 122 122" fill="currentColor">
  <path d="m105.2,54.74c7.52-4.8,16.93-13.1,16.93-35.24,0,0-23.26,24.39-44.98,24.39v-8.91l5.99-5.84-11.14-9.64h0s0,0,0,0l-11.14,9.64,5.99,5.84v8.91c-21.72,0-44.98-24.39-44.98-24.39,0,22.14,9.41,30.44,16.93,35.24,15.63-1.37,23.14.97,21.46,7.9-1.55,6.4-18.38,2.55-27.37-2.24,0,0,2.44,14.57,13.79,19.99h7.99c-.03,3.82-2.96,7.87-10.14,15.36l22.86,28.75v-17.64l-5.37-5.24,5.52-4.77,1.8-16.47,2.67-24.48h0s0,0,0,0l2.67,24.48,1.8,16.47,5.52,4.77-5.37,5.24v17.64l22.86-28.75c-7.18-7.49-10.11-11.54-10.14-15.36h7.99c11.35-5.42,13.79-19.99,13.79-19.99-8.99,4.79-25.82,8.64-27.37,2.24-1.68-6.93,5.83-9.27,21.46-7.9Z"/>
</svg>