<?xml version="1.0" encoding="UTF-8" standalone="yes"?>
<svg viewBox="-5 -15.5 64 64" xmlns="http://www.w3.org/2000/svg" fill="currentColor">
  <path d="M44.6607 30.0208C44.4042 31.0433 44.1134 31.8365 43.8568 32.3654C43.7029 32.6651 43.5489 32.859 43.4634 32.9471C43.4292 32.9824 43.4121 33 43.395 33H34.8768C34.8597 32.9824 34.7912 32.9471 34.7228 32.859C34.5689 32.6827 34.3636 32.3301 34.1584 31.8365C34.0215 31.5016 33.8847 31.1138 33.765 30.6731C33.5939 30.0737 33.4229 29.3862 33.286 28.6282C32.6873 25.5609 32.311 21.2596 32.311 16.5176C32.311 13.75 32.4308 11.141 32.6702 8.83173C32.8926 6.52244 33.2176 4.53045 33.611 2.99679C33.8676 1.97436 34.1584 1.16346 34.4149 0.652244C34.5689 0.352564 34.7228 0.158654 34.8083 0.0705128C34.8255 0.0176282 34.8426 0 34.8597 0H43.3779C43.395 0.0176282 43.4634 0.0528846 43.5318 0.141026C43.6858 0.317308 43.891 0.669872 44.0963 1.16346C44.2331 1.4984 44.37 1.88622 44.4897 2.32692C44.6607 2.92628 44.8318 3.61378 44.9686 4.37179C45.5673 7.4391 45.9436 11.7404 45.9436 16.4824C45.9436 19.25 45.8239 21.859 45.5844 24.1683C45.3791 26.4952 45.0542 28.4872 44.6607 30.0208Z"/>
  <path d="M47.6541 16.5C47.6541 13.6971 47.5344 11.0529 47.2949 8.70833C47.141 7.15705 46.9528 5.74679 46.7304 4.49519H51.6566C52.9566 4.47756 54 9.87179 54 16.5C54 23.1282 52.9566 28.5048 51.6566 28.5048H46.7304C47.312 25.3317 47.6541 21.1186 47.6541 16.5Z"/>
  <path d="M9.33926 30.0208C9.59584 31.0432 9.88662 31.8365 10.1432 32.3653C10.2971 32.665 10.4511 32.8589 10.5366 32.947C10.5708 32.9823 10.5879 32.9999 10.605 32.9999H19.1232C19.1403 32.9823 19.2088 32.947 19.2772 32.8589C19.4311 32.6826 19.6364 32.33 19.8416 31.8365C19.9785 31.5015 20.1153 31.1137 20.2351 30.673C20.4061 30.0736 20.5771 29.3861 20.714 28.6281C21.3127 25.5608 21.689 21.2595 21.689 16.5175C21.689 13.7499 21.5692 11.1409 21.3298 8.83165C21.1074 6.52236 20.7824 4.53037 20.389 2.99671C20.1324 1.97428 19.8416 1.16338 19.5851 0.652163C19.4311 0.352484 19.2772 0.158573 19.1917 0.0704322C19.1574 0.0351758 19.1403 0.0175476 19.1232 0.0175476H10.605C10.5879 0.0351758 10.5195 0.0704322 10.4511 0.158573C10.2971 0.334855 10.0919 0.687419 9.88662 1.18101C9.74978 1.51594 9.61294 1.90377 9.49321 2.34447C9.32216 2.94383 9.15111 3.63133 9.01427 4.38934C8.4156 7.45665 8.0393 11.7579 8.0393 16.4999C8.0393 19.2675 8.15903 21.8765 8.3985 24.1858C8.62086 26.4951 8.94585 28.4871 9.33926 30.0208Z"/>
  <path d="M6.32876 16.5C6.32876 13.6971 6.4485 11.0529 6.68797 8.70832C6.84191 7.15704 7.03007 5.74678 7.25243 4.49518H2.34334C1.04337 4.49518 -3.05176e-05 9.87178 -3.05176e-05 16.5C-3.05176e-05 23.1282 1.04337 28.5048 2.34334 28.5048H7.26953C6.68797 25.3317 6.32876 21.1186 6.32876 16.5Z"/>
  <path d="M34.4492 16.5C34.4492 19.2148 33.8334 20.6603 33.8334 20.6603H30.7033H23.8955H20.7653C20.7653 20.6603 20.1496 19.1971 20.1496 16.5C20.1496 13.7853 20.7653 12.3398 20.7653 12.3398H23.8955H30.7033H33.8163C33.8163 12.3398 34.4492 13.7853 34.4492 16.5Z"/>
</svg>