<?xml version="1.0" encoding="UTF-8" standalone="yes"?>
<svg xmlns="http://www.w3.org/2000/svg" viewBox="-24.15 -11.68 130 130" fill="currentColor">
  <path d="m64.13,0c2.22,10.74.39,22.21-5.49,31.74H22.63C16.82,22.33,14.97,11.03,17.06.41,6.91,8.68.24,22.09,0,37.28l13.8,3.05c10.03,2.22,20.3,7.59,27.05,15.33,6.75-7.74,17.02-13.12,27.06-15.33l13.8-3.05c-.24-15.45-7.13-29.06-17.57-37.28Z"/>
  <path d="m50.42,17.21C50.42,9.94,46.59,3.59,40.85,0c-5.74,3.59-9.56,9.94-9.56,17.21,0,.07,0,.15,0,.22.13,12.38,19,12.38,19.13,0,0-.07,0-.15,0-.22Z"/>
  <path d="m55.49,53.82c-7.46,3.32-14.64,14.02-14.64,14.02,0,0-7.18-10.7-14.64-14.02-3.64,16.22-10.68,34.88-24.12,34.88l11.51,17.95h54.5l11.51-17.95c-13.43,0-20.48-18.66-24.12-34.88Z"/>
</svg>