<?xml version="1.0" encoding="UTF-8" standalone="yes"?>
<svg xmlns="http://www.w3.org/2000/svg" viewBox="14 14 116 116" fill="currentColor">
  <path d="m123.9,82.2c1.55-2.81-.06-6.49-3.02-6.81-34.37-3.65-10.54-36.97-39.72-42.41-1.07,7.19-4.77,14.11-9.16,14.11s-8.09-6.92-9.16-14.11c-29.18,5.44-5.35,38.75-39.72,42.41-2.96.31-4.57,4-3.02,6.81,3.66,6.63,10.1,17,18.08,24.52,1.68,1.58,3.43,3.03,5.24,4.3,6.87-7.36,17.12-12.04,28.58-12.04s21.71,4.68,28.58,12.04c1.81-1.27,3.56-2.72,5.24-4.3,7.98-7.52,14.41-17.89,18.08-24.52Zm-43.34-6.34c2.45,1.67,5.85,1.51,8.33,2.01,2.27.46,4.17,1.85,4.54,3.91.51,2.79-3.52,8.79-6.29,9.36-2.04.42-4.03-.84-5.3-2.78-1.38-2.13-2.51-5.36-4.96-7.02-1.13-.77-2.9-1.98-4.88-3.34-1.98,1.36-3.75,2.57-4.88,3.34-2.45,1.67-3.58,4.9-4.96,7.02-1.27,1.94-3.26,3.2-5.3,2.78-2.77-.57-6.8-6.57-6.29-9.36.38-2.06,2.28-3.45,4.54-3.91,2.48-.5,5.88-.35,8.33-2.01.83-.56,1.76-1.2,2.73-1.86-.97-.66-1.9-1.3-2.73-1.86-2.45-1.67-5.85-1.51-8.33-2.01-2.27-.46-4.17-1.85-4.54-3.91-.51-2.79,3.52-8.79,6.29-9.36,2.04-.42,4.03.84,5.3,2.78,1.38,2.13,2.51,5.36,4.96,7.02,1.13.77,2.9,1.98,4.88,3.34,1.98-1.36,3.75-2.57,4.88-3.34,2.45-1.67,3.58-4.9,4.96-7.02,1.27-1.94,3.26-3.2,5.3-2.78,2.77.57,6.8,6.57,6.29,9.36-.38,2.06-2.28,3.45-4.54,3.91-2.48.5-5.88.35-8.33,2.01-.83.56-1.76,1.2-2.73,1.86.97.66,1.9,1.3,2.73,1.86Z"/>
</svg>