<?xml version="1.0" encoding="UTF-8" standalone="yes"?>
<svg xmlns="http://www.w3.org/2000/svg" viewBox="-14.5 -15 132 132" fill="currentColor">
  <polygon points="4.82 87.59 11.23 105.57 27.9 105.57 27.9 94.73 35.92 87.98 28.41 78.49 4.82 87.59"/>
  <polygon points="63.02 87.98 71.05 94.73 71.05 105.57 87.72 105.57 94.12 87.59 70.54 78.49 63.02 87.98"/>
  <path d="m93.79,22.33c-5.73,0-11.22,2.31-15.22,6.4l-3.9,3.99-4.46-5.63v-8.77c0-10.1-8.22-18.31-18.31-18.31H18.31C8.22,0,0,8.21,0,18.31v25.41c0,10.1,8.22,18.31,18.31,18.31h9.91l16.53,20.87h9.45l20.47-25.85,3.9,3.99c4.01,4.09,9.5,6.4,15.22,6.4h12.85V22.33h-12.85Zm-71.05.21v26.53h-4.43c-2.95,0-5.34-2.39-5.34-5.34v-25.41c0-2.95,2.39-5.34,5.34-5.34h33.58c2.95,0,5.34,2.39,5.34,5.34v4.23H22.74Z"/>
</svg>