<?xml version="1.0" encoding="UTF-8" standalone="yes"?>
<svg xmlns="http://www.w3.org/2000/svg" viewBox="10 12 124 124" fill="currentColor">
  <path d="M39.85,93.21c-.36-14.15,8.47-26.4,21.06-31.04,1.5-.55,1.51-2.68,.04-3.29-8.29-3.42-16.94-3.32-23.76,1.1-12.91,8.37-14.37,29.06-3.25,46.21,5.44,8.39,12.89,14.38,20.58,17.32,2,.76,3.37-2.11,1.51-3.18-9.43-5.41-15.89-15.47-16.18-27.13Z"/>
  <path d="M100.08,105.68c-11.52,9.46-27.09,10.42-38.66,3.5-1.38-.82-3.39,.62-2.75,2.1,7.07,16.33,28.67,16.08,42.13,5.62,12.12-9.41,20.02-28.41,15.4-42.44-.67-2.05-3.82-1.29-3.56,.86,1.3,10.95-3.07,22.57-12.56,30.36Z"/>
  <path d="M100.61,73.5c.98,1.6,3.2,1.63,4.32,.13,12.83-17.16-.46-46.3-28.32-53.79-2.44-.66-3.73,2.82-1.44,3.89,4.5,2.1,8.55,5.06,11.91,8.69,.86,.94-.27,2.35-1.38,1.71-1.65-.94-3.37-1.82-5.16-2.62-10.76-4.8-21.95-5.93-31.44-3.9-2.5,.53-1.94,4.24,.61,4.1,4.82-.26,9.64,.42,14.2,1.96,1.15,.39,.94,2.1-.28,2.17-4.12,.22-8.35,.91-12.6,2.13-7.12,2.04-16.96,6.58-20.42,12.65-1.21,2.14,.92,3.67,3.08,2.69,6.25-3.83,13.58-5.84,21.14-5.56,19.54-.04,37.79,12.76,45.77,25.75Z"/>
</svg>